<svg aria-hidden="true" style="position: absolute; width: 0; height: 0; overflow: hidden;" version="1.1" xmlns="http://www.w3.org/2000/svg" xmlns:xlink="http://www.w3.org/1999/xlink">
  <defs>
    <symbol id="icon-facebook" viewBox="0 0 32 32">
      <path d="M31.294 16c0-8.447-6.847-15.294-15.294-15.294s-15.294 6.847-15.294 15.294c0 8.447 6.847 15.294 15.294 15.294v0c8.443-0.008 15.286-6.851 15.294-15.293v-0.001zM17.176 28.883v-9.353h3.529c0.65 0 1.176-0.527 1.176-1.176s-0.527-1.176-1.176-1.176v0h-3.529v-3.529c0-1.3 1.053-2.353 2.353-2.353v0h2.353c0.65 0 1.176-0.527 1.176-1.176s-0.527-1.176-1.176-1.176v0h-2.353c-2.596 0.009-4.697 2.11-4.706 4.705v3.53h-3.529c-0.65 0-1.176 0.527-1.176 1.176s0.527 1.176 1.176 1.176v0h3.529v9.353c-6.623-0.623-11.765-6.155-11.765-12.888 0-7.147 5.794-12.941 12.941-12.941s12.941 5.794 12.941 12.941c0 6.733-5.142 12.265-11.713 12.884l-0.052 0.004z"></path>
    </symbol>
    <symbol id="icon-instagram" viewBox="0 0 32 32">
      <path d="M16 2.881c4.275 0 4.781 0.019 6.462 0.094 1.563 0.069 2.406 0.331 2.969 0.55 0.744 0.288 1.281 0.638 1.837 1.194 0.563 0.563 0.906 1.094 1.2 1.838 0.219 0.563 0.481 1.412 0.55 2.969 0.075 1.688 0.094 2.194 0.094 6.463s-0.019 4.781-0.094 6.463c-0.069 1.563-0.331 2.406-0.55 2.969-0.288 0.744-0.637 1.281-1.194 1.837-0.563 0.563-1.094 0.906-1.837 1.2-0.563 0.219-1.413 0.481-2.969 0.55-1.688 0.075-2.194 0.094-6.463 0.094s-4.781-0.019-6.463-0.094c-1.563-0.069-2.406-0.331-2.969-0.55-0.744-0.288-1.281-0.637-1.838-1.194-0.563-0.563-0.906-1.094-1.2-1.837-0.219-0.563-0.481-1.413-0.55-2.969-0.075-1.688-0.094-2.194-0.094-6.463s0.019-4.781 0.094-6.463c0.069-1.563 0.331-2.406 0.55-2.969 0.288-0.744 0.638-1.281 1.194-1.838 0.563-0.563 1.094-0.906 1.838-1.2 0.563-0.219 1.412-0.481 2.969-0.55 1.681-0.075 2.188-0.094 6.463-0.094zM16 0c-4.344 0-4.887 0.019-6.594 0.094-1.7 0.075-2.869 0.35-3.881 0.744-1.056 0.412-1.95 0.956-2.837 1.85-0.894 0.888-1.438 1.781-1.85 2.831-0.394 1.019-0.669 2.181-0.744 3.881-0.075 1.713-0.094 2.256-0.094 6.6s0.019 4.887 0.094 6.594c0.075 1.7 0.35 2.869 0.744 3.881 0.413 1.056 0.956 1.95 1.85 2.837 0.887 0.887 1.781 1.438 2.831 1.844 1.019 0.394 2.181 0.669 3.881 0.744 1.706 0.075 2.25 0.094 6.594 0.094s4.888-0.019 6.594-0.094c1.7-0.075 2.869-0.35 3.881-0.744 1.050-0.406 1.944-0.956 2.831-1.844s1.438-1.781 1.844-2.831c0.394-1.019 0.669-2.181 0.744-3.881 0.075-1.706 0.094-2.25 0.094-6.594s-0.019-4.887-0.094-6.594c-0.075-1.7-0.35-2.869-0.744-3.881-0.394-1.063-0.938-1.956-1.831-2.844-0.887-0.887-1.781-1.438-2.831-1.844-1.019-0.394-2.181-0.669-3.881-0.744-1.712-0.081-2.256-0.1-6.6-0.1v0z"></path>
      <path d="M16 7.781c-4.537 0-8.219 3.681-8.219 8.219s3.681 8.219 8.219 8.219 8.219-3.681 8.219-8.219c0-4.537-3.681-8.219-8.219-8.219zM16 21.331c-2.944 0-5.331-2.387-5.331-5.331s2.387-5.331 5.331-5.331c2.944 0 5.331 2.387 5.331 5.331s-2.387 5.331-5.331 5.331z"></path>
      <path d="M26.462 7.456c0 1.060-0.859 1.919-1.919 1.919s-1.919-0.859-1.919-1.919c0-1.060 0.859-1.919 1.919-1.919s1.919 0.859 1.919 1.919z"></path>
    </symbol>
    <symbol id="icon-youtube" viewBox="0 0 32 32">
      <path d="M31.681 9.6c0 0-0.313-2.206-1.275-3.175-1.219-1.275-2.581-1.281-3.206-1.356-4.475-0.325-11.194-0.325-11.194-0.325h-0.012c0 0-6.719 0-11.194 0.325-0.625 0.075-1.987 0.081-3.206 1.356-0.963 0.969-1.269 3.175-1.269 3.175s-0.319 2.588-0.319 5.181v2.425c0 2.587 0.319 5.181 0.319 5.181s0.313 2.206 1.269 3.175c1.219 1.275 2.819 1.231 3.531 1.369 2.563 0.244 10.881 0.319 10.881 0.319s6.725-0.012 11.2-0.331c0.625-0.075 1.988-0.081 3.206-1.356 0.962-0.969 1.275-3.175 1.275-3.175s0.319-2.587 0.319-5.181v-2.425c-0.006-2.588-0.325-5.181-0.325-5.181zM12.694 20.15v-8.994l8.644 4.513-8.644 4.481z"></path>
    </symbol>
    <symbol id="icon-burger" viewBox="0 0 32 32">
      <path d="M29.333 24.007c0 0.733-0.595 1.327-1.327 1.327h-10.68c-0.733 0-1.327-0.594-1.327-1.327s0.594-1.327 1.327-1.327h10.68c0.733 0 1.327 0.593 1.327 1.327zM29.333 16c0 0.733-0.595 1.327-1.327 1.327h-24.013c-0.733 0-1.327-0.594-1.327-1.327s0.594-1.327 1.327-1.327h24.013c0.733 0 1.327 0.595 1.327 1.327zM28.007 9.32c0.733 0 1.327-0.594 1.327-1.327s-0.594-1.327-1.327-1.327h-16.013c-0.733 0-1.327 0.594-1.327 1.327s0.594 1.327 1.327 1.327h16.013z"></path>
    </symbol>   
    <symbol id="icon-yourname" viewBox="0 0 32 32">
      <path d="M11.122 7.957c0-1.333 0.529-2.612 1.47-3.556 0.908-0.909 2.163-1.472 3.55-1.472s2.642 0.563 3.55 1.472l0 0c0.909 0.91 1.471 2.167 1.471 3.556s-0.562 2.645-1.471 3.556l0-0c-0.908 0.909-2.163 1.472-3.55 1.472s-2.642-0.563-3.55-1.472l-0-0c-0.908-0.91-1.47-2.167-1.47-3.554 0-0.001 0-0.001 0-0.002v0zM16.141 0.057c-2.179 0-4.151 0.884-5.577 2.313l-0 0c-1.428 1.431-2.312 3.406-2.312 5.587s0.883 4.156 2.312 5.587l-0-0c1.427 1.429 3.399 2.313 5.577 2.313s4.151-0.884 5.577-2.313l0-0c1.428-1.431 2.312-3.406 2.312-5.587s-0.883-4.156-2.312-5.587l0 0c-1.426-1.429-3.398-2.313-5.576-2.313h-0zM3.95 23.042c0-1.144 0.454-2.24 1.261-3.048 0.778-0.78 1.854-1.262 3.042-1.262h15.775c1.141 0 2.236 0.454 3.042 1.262 0.779 0.78 1.261 1.858 1.261 3.048 0 0 0 0 0 0v-0 0.324c-0.004 0.135-0.012 0.268-0.028 0.402-0.030 0.249-0.083 0.585-0.187 0.985-0.296 1.111-0.79 2.080-1.446 2.915l0.013-0.017c-1.677 2.157-4.834 4.011-10.542 4.011s-8.863-1.852-10.542-4.011c-0.644-0.818-1.138-1.787-1.421-2.842l-0.013-0.056c-0.102-0.375-0.176-0.815-0.208-1.267l-0.001-0.022c-0.001-0.027-0.002-0.061-0.002-0.095l-0-0.002v-0.032l-0.002-0.012v-0.28zM6.818 23.297v0.018c0.020 0.242 0.062 0.481 0.122 0.716 0.13 0.499 0.391 1.175 0.92 1.854 1.011 1.299 3.233 2.904 8.281 2.904 5.049 0 7.271-1.605 8.281-2.901 0.412-0.524 0.728-1.144 0.909-1.82l0.008-0.036c0.063-0.235 0.103-0.474 0.124-0.716v-0.273c-0.001-0.792-0.642-1.435-1.434-1.438h-15.775c0 0 0 0 0 0-0.792 0-1.434 0.642-1.434 1.434 0 0.001 0 0.003 0 0.004v-0 0.255z"></path>
    </symbol>
    <symbol id="icon-yourphone" viewBox="0 0 32 32">
      <path d="M29.523 31.238c-3.961 0-7.688-0.749-11.179-2.247-3.493-1.499-6.541-3.55-9.143-6.152-2.605-2.603-4.662-5.651-6.171-9.143-1.512-3.493-2.267-7.232-2.267-11.219-0.026-0.457 0.126-0.857 0.457-1.201 0.33-0.343 0.736-0.514 1.218-0.514h5.943c0.457 0 0.851 0.171 1.182 0.514s0.495 0.757 0.495 1.239c0 1.118 0.077 2.171 0.229 3.162 0.152 0.99 0.393 1.93 0.723 2.818 0.127 0.28 0.153 0.566 0.077 0.857-0.077 0.293-0.229 0.566-0.457 0.819l-3.809 3.809c1.091 2.235 2.64 4.355 4.647 6.362 2.007 2.006 4.166 3.606 6.477 4.8l3.809-3.809c0.229-0.229 0.496-0.382 0.8-0.457 0.305-0.077 0.61-0.051 0.914 0.075 0.81 0.275 1.791 0.519 2.798 0.688l0.116 0.016c1.003 0.166 2.039 0.249 3.105 0.249 0.482 0 0.896 0.177 1.239 0.533s0.514 0.789 0.514 1.296v5.829c0 0.457-0.166 0.85-0.496 1.181-0.301 0.306-0.719 0.495-1.182 0.495-0.013 0-0.027-0-0.040-0l0.002 0zM20.762 26.666c1.143 0.432 2.336 0.775 3.581 1.029 1.245 0.255 2.527 0.419 3.848 0.496v-3.277c-0.926-0.062-1.757-0.156-2.576-0.287l0.157 0.021c-0.946-0.148-1.775-0.347-2.577-0.604l0.119 0.033-2.552 2.59zM28.191 16c0-3.403-1.182-6.286-3.543-8.648-2.362-2.361-5.246-3.543-8.648-3.543v-3.047c2.107 0 4.089 0.4 5.943 1.199 1.854 0.8 3.466 1.886 4.838 3.257 1.349 1.355 2.447 2.96 3.219 4.739l0.038 0.1c0.8 1.854 1.2 3.834 1.2 5.943h-3.047zM22.095 16c0-1.677-0.597-3.111-1.79-4.305-1.194-1.193-2.629-1.79-4.305-1.79v-3.048c2.539 0 4.698 0.889 6.477 2.666 1.777 1.779 2.666 3.937 2.666 6.477h-3.048zM5.334 11.162l2.514-2.553c-0.175-0.598-0.354-1.381-0.494-2.178l-0.021-0.146c-0.127-0.697-0.229-1.548-0.282-2.411l-0.003-0.065h-3.2c0.051 1.219 0.203 2.439 0.457 3.657 0.255 1.219 0.598 2.451 1.029 3.696z"></path>
    </symbol>
    <symbol id="icon-youremail" viewBox="0 0 32 32">
      <path d="M16 31.238c-2.082 0-4.050-0.4-5.905-1.2-1.886-0.815-3.497-1.92-4.856-3.277l0 0c-1.357-1.359-2.462-2.971-3.238-4.757l-0.039-0.1c-0.759-1.717-1.2-3.72-1.2-5.825 0-0.028 0-0.055 0-0.083l-0 0.004c0-2.109 0.4-4.082 1.2-5.923 0.818-1.879 1.923-3.483 3.277-4.838l-0 0c1.359-1.357 2.971-2.462 4.757-3.239l0.1-0.039c1.854-0.8 3.822-1.2 5.904-1.2 2.107 0 4.082 0.4 5.923 1.2s3.454 1.893 4.838 3.278c1.354 1.355 2.458 2.959 3.238 4.738l0.039 0.1c0.8 1.841 1.2 3.815 1.2 5.923v2.209c0 1.498-0.514 2.775-1.542 3.829-1.029 1.054-2.293 1.582-3.791 1.582-0.011 0-0.025 0-0.038 0-0.919 0-1.784-0.226-2.545-0.625l0.030 0.014c-0.775-0.396-1.423-0.935-1.933-1.587l-0.009-0.013c-1.37 1.366-3.261 2.211-5.349 2.211-0.021 0-0.043-0-0.064-0l0.003 0c-2.109 0-3.904-0.743-5.39-2.23-1.486-1.486-2.229-3.282-2.229-5.39 0-2.109 0.743-3.905 2.229-5.391s3.281-2.229 5.39-2.229c2.107 0 3.905 0.743 5.391 2.229s2.229 3.283 2.229 5.391v2.209c0 0.737 0.229 1.314 0.686 1.733 0.457 0.419 0.99 0.63 1.6 0.63 0.609 0 1.143-0.21 1.6-0.629 0.457-0.419 0.686-0.997 0.686-1.734v-2.209c0-3.327-1.2-6.191-3.601-8.591-2.4-2.4-5.263-3.6-8.59-3.6s-6.191 1.2-8.591 3.6c-2.4 2.4-3.6 5.264-3.6 8.591s1.2 6.19 3.6 8.59c2.4 2.4 5.264 3.6 8.591 3.6h7.619v3.048h-7.619zM16 20.571c1.27 0 2.349-0.445 3.238-1.334 0.889-0.888 1.334-1.968 1.334-3.238s-0.445-2.35-1.334-3.238c-0.888-0.889-1.968-1.334-3.238-1.334s-2.35 0.445-3.238 1.334c-0.889 0.888-1.334 1.968-1.334 3.238s0.445 2.349 1.334 3.238c0.888 0.889 1.968 1.334 3.238 1.334z"></path>
    </symbol>
     <symbol id="icon-key" viewBox="0 0 32 32">
      <path d="M22 0c-5.523 0-10 4.477-10 10 0 0.626 0.058 1.238 0.168 1.832l-12.168 12.168v6c0 1.105 0.895 2 2 2h2v-2h4v-4h4v-4h4l2.595-2.595c1.063 0.385 2.209 0.595 3.405 0.595 5.523 0 10-4.477 10-10s-4.477-10-10-10zM24.996 10.004c-1.657 0-3-1.343-3-3s1.343-3 3-3 3 1.343 3 3-1.343 3-3 3z"></path>
    </symbol>
    <symbol id="icon-user-name" viewBox="0 0 32 32">
      <path d="M30 19l-9 9-3-3-2 2 5 5 11-11z"></path>
      <path d="M14 24h10v-3.598c-2.101-1.225-4.885-2.066-8-2.321v-1.649c2.203-1.242 4-4.337 4-7.432 0-4.971 0-9-6-9s-6 4.029-6 9c0 3.096 1.797 6.191 4 7.432v1.649c-6.784 0.555-12 3.888-12 7.918h14v-2z"></path>
    </symbol>
    <symbol id="icon-calendar" viewBox="0 0 32 32">
      <path d="M10 12h4v4h-4zM16 12h4v4h-4zM22 12h4v4h-4zM4 24h4v4h-4zM10 24h4v4h-4zM16 24h4v4h-4zM10 18h4v4h-4zM16 18h4v4h-4zM22 18h4v4h-4zM4 18h4v4h-4zM26 0v2h-4v-2h-14v2h-4v-2h-4v32h30v-32h-4zM28 30h-26v-22h26v22z"></path>
    </symbol>
    <symbol id="icon-select" viewBox="0 0 32 32">
      <path d="M28 0h-24c-2.2 0-4 1.8-4 4v24c0 2.2 1.8 4 4 4h24c2.2 0 4-1.8 4-4v-24c0-2.2-1.8-4-4-4zM14 24.828l-7.414-7.414 2.828-2.828 4.586 4.586 9.586-9.586 2.828 2.828-12.414 12.414z"></path>
    </symbol>
    <symbol id="icon-slider-arrow" viewBox="0 0 34 32">
      <path d="M0.586 17.414c-0.362-0.362-0.586-0.862-0.586-1.414s0.224-1.052 0.586-1.414l12.728-12.728c0.357-0.335 0.838-0.541 1.368-0.541 1.105 0 2 0.895 2 2 0 0.53-0.206 1.012-0.543 1.37l0.001-0.001-11.312 11.314 11.314 11.314c0.377 0.364 0.611 0.874 0.611 1.439 0 1.105-0.895 2-2 2-0.565 0-1.074-0.234-1.438-0.61l-0.001-0.001-12.728-12.728zM34 18h-32v-4h32v4z"></path>
    </symbol>
    <symbol id="icon-dropdown-arrow" viewBox="0 0 32 32">
      <path d="M22.469 28.133c0.307-0.295 0.498-0.709 0.498-1.168 0-0.006-0-0.011-0-0.017v0.001c0-0.004 0-0.009 0-0.013 0-0.459-0.192-0.874-0.5-1.168l-0.001-0.001-9.767-9.767 9.801-9.799c0.288-0.287 0.467-0.684 0.467-1.123 0-0.015-0-0.030-0.001-0.045l0 0.002c0-0.007 0-0.016 0-0.024 0-0.462-0.192-0.88-0.5-1.178l-0-0c-0.295-0.309-0.71-0.501-1.17-0.501-0.005 0-0.010 0-0.014 0h0.001c-0.004-0-0.009-0-0.013-0-0.46 0-0.875 0.193-1.168 0.502l-0.001 0.001-11.2 11.232c-0.123 0.119-0.219 0.264-0.281 0.426l-0.003 0.008c-0.054 0.147-0.085 0.317-0.085 0.494 0 0.001 0 0.003 0 0.004v-0c0 0.178 0.027 0.343 0.085 0.501 0.064 0.17 0.161 0.315 0.283 0.434l11.232 11.232c0.283 0.288 0.677 0.467 1.113 0.467 0.013 0 0.026-0 0.038-0l-0.002 0c0.457 0 0.85-0.167 1.184-0.501z"></path>
    </symbol>
    <symbol id="icon-mobile-menu-btn-close" viewBox="0 0 32 32">
      <path stroke-linejoin="miter" stroke-linecap="round" stroke-miterlimit="4" stroke-width="4.5714" d="M2.286 2.286l13.714 13.714 13.714-13.714M2.286 29.714l13.714-13.714 13.714 13.714"></path>
    </symbol>
    <symbol id="icon-cloudy" viewBox="0 0 32 32">
      <path d="M13 4c0.552 0 1-0.448 1-1v-2c0-0.552-0.448-1-1-1s-1 0.448-1 1v2c0 0.552 0.448 1 1 1zM20.777 6.635l1.414-1.414c0.391-0.391 0.391-1.023 0-1.414s-1.023-0.391-1.414 0l-1.414 1.414c-0.391 0.391-0.391 1.023 0 1.414s1.023 0.391 1.414 0zM1 14h2c0.552 0 1-0.448 1-1s-0.448-1-1-1h-2c-0.552 0-1 0.448-1 1s0.448 1 1 1zM22 13c0 0.552 0.448 1 1 1h2c0.552 0 1-0.448 1-1s-0.448-1-1-1h-2c-0.552 0-1 0.448-1 1zM5.221 6.635c0.391 0.391 1.024 0.391 1.414 0s0.391-1.023 0-1.414l-1.414-1.414c-0.391-0.391-1.023-0.391-1.414 0s-0.391 1.023 0 1.414l1.414 1.414zM25 16c-0.332 0-0.66 0.023-0.987 0.070-1.048-1.43-2.445-2.521-4.029-3.219-0.081-3.789-3.176-6.852-6.984-6.852-3.859 0-7 3.141-7 7 0 1.090 0.271 2.109 0.719 3.027-3.727 0.152-6.719 3.211-6.719 6.973 0 3.859 3.141 7 7 7 0.856 0 1.693-0.156 2.482-0.458 1.81 1.578 4.112 2.458 6.518 2.458 2.409 0 4.708-0.88 6.518-2.458 0.789 0.302 1.626 0.458 2.482 0.458 3.859 0 7-3.141 7-7s-3.141-7-7-7zM16 12c-2.871 0-5.531 1.238-7.398 3.328-0.371-0.698-0.602-1.482-0.602-2.328 0-2.762 2.238-5 5-5 2.488 0 4.535 1.823 4.919 4.203-0.626-0.125-1.266-0.203-1.919-0.203z"></path>
    </symbol>
    <symbol id="icon-cloud-sun" viewBox="0 0 32 32">
      <path d="M24.953 10.219v0c1.228 0.992 2.020 2.501 2.046 4.195 1.768 0.771 3.001 2.534 3.001 4.585 0 2.756-2.238 5-4.999 5h-17.001c-2.767 0-4.999-2.239-4.999-5 0-2.051 1.24-3.818 3.012-4.588-0.008-0.136-0.012-0.273-0.012-0.412 0-3.866 3.134-7 7-7 0.522 0 1.030 0.057 1.519 0.165v0c0.878-1.87 2.778-3.165 4.981-3.165 3.038 0 5.5 2.462 5.5 5.5 0 0.244-0.016 0.484-0.047 0.719zM23.999 9.599c0.001-0.033 0.001-0.066 0.001-0.099 0-2.485-2.015-4.5-4.5-4.5-1.749 0-3.265 0.998-4.010 2.456 1.253 0.477 2.334 1.304 3.124 2.362 0.839-0.518 1.828-0.817 2.886-0.817 0.9 0 1.749 0.216 2.499 0.599v0zM19.5 0c-0.276 0-0.5 0.216-0.5 0.495v2.009c0 0.274 0.232 0.495 0.5 0.495 0.276 0 0.5-0.216 0.5-0.495v-2.009c0-0.274-0.232-0.495-0.5-0.495v0zM26.233 2.789c-0.195-0.195-0.506-0.201-0.704-0.003l-1.421 1.421c-0.193 0.193-0.186 0.514 0.003 0.704 0.195 0.195 0.506 0.201 0.704 0.003l1.421-1.421c0.193-0.193 0.186-0.514-0.003-0.704v0zM29.022 9.522c0-0.276-0.216-0.5-0.495-0.5h-2.009c-0.274 0-0.495 0.232-0.495 0.5 0 0.276 0.216 0.5 0.495 0.5h2.009c0.274 0 0.495-0.232 0.495-0.5v0zM12.767 2.789c-0.195 0.195-0.201 0.506-0.003 0.704l1.421 1.421c0.193 0.193 0.514 0.186 0.704-0.003 0.195-0.195 0.201-0.506 0.003-0.704l-1.421-1.421c-0.193-0.193-0.514-0.186-0.704 0.003v0z"></path>
    </symbol>
    <symbol id="icon-sun" viewBox="0 0 32 32">
      <path d="M16 26c1.105 0 2 0.895 2 2v2c0 1.105-0.895 2-2 2s-2-0.895-2-2v-2c0-1.105 0.895-2 2-2zM16 6c-1.105 0-2-0.895-2-2v-2c0-1.105 0.895-2 2-2s2 0.895 2 2v2c0 1.105-0.895 2-2 2zM30 14c1.105 0 2 0.895 2 2s-0.895 2-2 2h-2c-1.105 0-2-0.895-2-2s0.895-2 2-2h2zM6 16c0 1.105-0.895 2-2 2h-2c-1.105 0-2-0.895-2-2s0.895-2 2-2h2c1.105 0 2 0.895 2 2zM25.899 23.071l1.414 1.414c0.781 0.781 0.781 2.047 0 2.828s-2.047 0.781-2.828 0l-1.414-1.414c-0.781-0.781-0.781-2.047 0-2.828s2.047-0.781 2.828 0zM6.101 8.929l-1.414-1.414c-0.781-0.781-0.781-2.047 0-2.828s2.047-0.781 2.828 0l1.414 1.414c0.781 0.781 0.781 2.047 0 2.828s-2.047 0.781-2.828 0zM25.899 8.929c-0.781 0.781-2.047 0.781-2.828 0s-0.781-2.047 0-2.828l1.414-1.414c0.781-0.781 2.047-0.781 2.828 0s0.781 2.047 0 2.828l-1.414 1.414zM6.101 23.071c0.781-0.781 2.047-0.781 2.828 0s0.781 2.047 0 2.828l-1.414 1.414c-0.781 0.781-2.047 0.781-2.828 0s-0.781-2.047 0-2.828l1.414-1.414z"></path>
      <path d="M16 8c-4.418 0-8 3.582-8 8s3.582 8 8 8c4.418 0 8-3.582 8-8s-3.582-8-8-8zM16 21c-2.761 0-5-2.239-5-5s2.239-5 5-5 5 2.239 5 5-2.239 5-5 5z"></path>
    </symbol>
  </defs>
</svg>
